<?xml version="1.0" standalone="no"?>
<!DOCTYPE svg PUBLIC "-//W3C//DTD SVG 20010904//EN"
 "http://www.w3.org/TR/2001/REC-SVG-20010904/DTD/svg10.dtd">
<svg version="1.0" xmlns="http://www.w3.org/2000/svg"
 width="329.000000pt" height="329.000000pt" viewBox="0 0 329.000000 329.000000"
 preserveAspectRatio="xMidYMid meet">
<metadata>
Created by potrace 1.11, written by Peter Selinger 2001-2013
</metadata>
<g transform="translate(0.000000,329.000000) scale(0.100000,-0.100000)"
fill="#000000" stroke="none">
<path d="M630 2470 l0 -360 1330 0 1330 0 0 360 0 360 -1330 0 -1330 0 0 -360z"/>
<path d="M23 2012 l-23 -3 0 -354 c0 -296 2 -355 14 -362 8 -4 634 -6 1391 -3
l1377 5 -2 355 c0 195 -2 355 -3 357 -4 4 -2728 9 -2754 5z"/>
<path d="M900 840 c0 -233 4 -360 10 -361 6 -1 17 -1 25 -1 8 0 542 0 1185 1
l1170 1 0 360 0 360 -1195 0 -1195 0 0 -360z"/>
</g>
</svg>
